<svg width="156" height="36" viewBox="0 0 156 36" fill="none" xmlns="http://www.w3.org/2000/svg">
<path d="M53.8737 34.0654C55.9821 34.0654 57.7495 33.5517 59.1757 32.5242C60.633 31.4968 61.5632 30.0957 61.9663 28.321H65.4545C64.8654 30.7184 63.5166 32.602 61.4082 33.972C59.2998 35.3108 56.7263 35.9802 53.6876 35.9802C51.1451 35.9802 48.9127 35.4976 46.9903 34.5324C45.0989 33.5672 43.6261 32.1973 42.5719 30.4226C41.5487 28.6168 41.0371 26.5307 41.0371 24.1644C41.0371 21.7359 41.5487 19.6187 42.5719 17.8129C43.5951 16.007 45.0524 14.6215 46.9438 13.6563C48.8662 12.66 51.0831 12.1618 53.5946 12.1618C57.3774 12.1618 60.323 13.1893 62.4314 15.2442C64.5708 17.2991 65.687 20.1947 65.7801 23.9309H45.316V24.1644C45.316 27.2468 46.0601 29.6753 47.5484 31.45C49.0367 33.1936 51.1451 34.0654 53.8737 34.0654ZM53.6876 14.0766C51.3622 14.0766 49.4863 14.7772 48.06 16.1783C46.6337 17.5482 45.7656 19.4942 45.4555 22.0161H61.7338C61.3927 19.463 60.5245 17.5015 59.1292 16.1316C57.765 14.7616 55.9511 14.0766 53.6876 14.0766ZM80.7982 35.9802C77.7906 35.9802 75.4962 35.3731 73.9148 34.1588C72.3645 32.9445 71.5894 31.2165 71.5894 28.9748C71.5894 26.5774 72.5351 24.756 74.4264 23.5106C76.3178 22.234 79.0774 21.5958 82.7051 21.5958H89.4955V19.9145C89.4955 18.0152 88.9218 16.5675 87.7746 15.5711C86.6274 14.5748 84.9686 14.0766 82.7981 14.0766C80.7517 14.0766 79.1084 14.5592 77.8681 15.5244C76.6279 16.4585 75.8992 17.7973 75.6822 19.5409H72.3335C72.6436 17.1746 73.7288 15.3532 75.5892 14.0766C77.4495 12.8001 79.93 12.1618 83.0307 12.1618C86.5034 12.1618 89.1544 12.8779 90.9838 14.3102C92.8131 15.7112 93.7278 17.7506 93.7278 20.4282V27.994C93.7278 30.6717 93.9604 33.178 94.4254 35.5132H90.4256C90.0846 34.1121 89.8675 32.7733 89.7745 31.4968C87.9141 34.4857 84.922 35.9802 80.7982 35.9802ZM81.8679 34.1588C83.2942 34.1588 84.581 33.8319 85.7282 33.178C86.9064 32.4931 87.8211 31.5902 88.4723 30.4693C89.1544 29.3484 89.4955 28.103 89.4955 26.7331V23.5106H83.8678C81.1393 23.5106 79.1084 23.962 77.7751 24.865C76.4729 25.7367 75.8217 27.0911 75.8217 28.9281C75.8217 30.6405 76.3333 31.9482 77.3565 32.8511C78.3797 33.7229 79.8835 34.1588 81.8679 34.1588ZM102.766 3.61523H107.044V35.5132H102.766V3.61523ZM123.145 35.9802C121.13 35.9802 119.626 35.4198 118.634 34.2989C117.642 33.178 117.146 31.45 117.146 29.1149V14.5437H113.053L113.704 12.6289H117.192L118.867 6.18388H121.425V12.6289H127.796L127.192 14.5437H121.425V29.7688C121.425 32.602 122.479 34.0187 124.587 34.0187C125.703 34.0187 126.789 33.7229 127.843 33.1313V35.1396C126.541 35.7 124.975 35.9802 123.145 35.9802ZM133.211 3.61523H137.49V17.0189C138.296 15.4933 139.49 14.3102 141.071 13.4695C142.683 12.5977 144.497 12.1618 146.512 12.1618C149.489 12.1618 151.799 12.9091 153.442 14.4036C155.117 15.8669 155.954 17.9218 155.954 20.5683V35.5132H151.675V20.148C151.675 18.2176 151.148 16.7231 150.094 15.6645C149.039 14.6059 147.536 14.0766 145.582 14.0766C143.133 14.0766 141.164 14.8862 139.676 16.5052C138.218 18.1242 137.49 20.257 137.49 22.9035V35.5132H133.211V3.61523Z" fill="#69AF80"/>
<path d="M3.51145 9.78027C2.58126 9.78027 1.82161 9.51562 1.23249 8.98633C0.643375 8.45703 0.348816 7.75649 0.348816 6.8847C0.348816 6.01292 0.643375 5.31238 1.23249 4.78308C1.82161 4.25378 2.58126 3.98914 3.51145 3.98914C4.44164 3.98914 5.20129 4.25378 5.79041 4.78308C6.37952 5.31238 6.67408 6.01292 6.67408 6.8847C6.67408 7.75649 6.37952 8.45703 5.79041 8.98633C5.20129 9.51562 4.44164 9.78027 3.51145 9.78027ZM1.37202 12.6291H5.65088V35.5135H1.37202V12.6291Z" fill="#69AF80"/>
<path d="M30.0529 18.9881C30.0444 18.7136 30.2636 18.4865 30.5371 18.4865H35.3511C35.6246 18.4865 35.8439 18.7136 35.8354 18.9881L35.5867 27L35.8354 35.0118C35.8439 35.2863 35.6246 35.5135 35.3511 35.5135H30.5371C30.2636 35.5135 30.0444 35.2863 30.0529 35.0118L30.3016 27L30.0529 18.9881Z" fill="#69AF80"/>
<path d="M13.0959 18.988C13.0875 18.7135 13.3067 18.4863 13.5802 18.4863H18.3942C18.6677 18.4863 18.887 18.7135 18.8785 18.988L18.6298 26.9998L18.8785 35.0117C18.887 35.2862 18.6677 35.5134 18.3942 35.5134H13.5802C13.3067 35.5134 13.0875 35.2862 13.0959 35.0117L13.3447 26.9998L13.0959 18.988Z" fill="#69AF80"/>
<path d="M30.0529 0.501641C30.0444 0.227158 30.2636 0 30.5371 0H35.3511C35.6246 0 35.8439 0.227158 35.8354 0.501641L35.5867 8.51351L35.8354 16.5254C35.8439 16.7999 35.6246 17.027 35.3511 17.027H30.5371C30.2636 17.027 30.0444 16.7999 30.0529 16.5254L30.3016 8.51351L30.0529 0.501641Z" fill="#69AF80"/>
<path d="M13.0959 0.501641C13.0875 0.227158 13.3067 0 13.5802 0H18.3942C18.6677 0 18.887 0.227158 18.8785 0.501641L18.6298 8.51351L18.8785 16.5254C18.887 16.7999 18.6677 17.027 18.3942 17.027H13.5802C13.3067 17.027 13.0875 16.7999 13.0959 16.5254L13.3447 8.51351L13.0959 0.501641Z" fill="#69AF80"/>
<path fill-rule="evenodd" clip-rule="evenodd" d="M19.291 18.8158L28.3514 15.5053L19.2982 18.2721C22.9345 13.4776 30.7439 11.5665 35.7812 12.4825C28.3138 22.7936 20.8426 22.0176 19.291 18.8158Z" fill="url(#paint0_linear_1_12)"/>
<defs>
<linearGradient id="paint0_linear_1_12" x1="30.3437" y1="18.5496" x2="24.51" y2="12.8295" gradientUnits="userSpaceOnUse">
<stop stop-color="#0A5709"/>
<stop offset="1" stop-color="#2E9533"/>
</linearGradient>
</defs>
</svg>
